<svg width="522" height="270" viewBox="0 0 522 270" fill="none" xmlns="http://www.w3.org/2000/svg">
<g clip-path="url(#clip0_657_92)">
<path d="M104.784 191.478C103.245 191.48 101.771 192.153 100.683 193.349C99.5954 194.545 98.9836 196.167 98.9819 197.858V212.785C98.9836 214.476 99.5954 216.098 100.683 217.294C101.771 218.491 103.245 219.163 104.784 219.165H112.143C113.681 219.163 115.155 218.491 116.243 217.294C117.331 216.098 117.943 214.476 117.944 212.785V197.858C117.943 196.167 117.331 194.545 116.243 193.349C115.155 192.153 113.681 191.48 112.143 191.478H104.784Z" fill="#3F3D56"/>
<path d="M240.816 219.662H233.457C231.799 219.66 230.21 218.934 229.037 217.645C227.865 216.356 227.206 214.608 227.204 212.785V197.858C227.206 196.035 227.865 194.287 229.037 192.998C230.21 191.708 231.799 190.983 233.457 190.981H240.816C242.474 190.983 244.063 191.708 245.236 192.998C246.408 194.287 247.067 196.035 247.069 197.858V212.785C247.067 214.608 246.408 216.356 245.236 217.645C244.063 218.934 242.474 219.66 240.816 219.662Z" fill="#3F3D56"/>
<path d="M235.933 207.71H109.215C103.448 207.71 98.7563 203.972 98.7563 199.376V172.579L105.046 165.295H241.326L246.392 172.595V199.376C246.392 203.972 241.7 207.71 235.933 207.71Z" fill="#CCCCCC"/>
<path d="M240.734 178.7H105.768L104.397 155.573L105.27 153.206L110.343 139.477H235.246L242.106 155.067L240.734 178.7Z" fill="#CCCCCC"/>
<path d="M241.877 155.117L240.87 172.494H211.176V159.585L241.033 153.2L241.877 155.117Z" fill="white"/>
<path d="M134.875 159.585V172.494H105.628L104.625 155.613L105.479 153.3L134.875 159.585Z" fill="white"/>
<path d="M234.494 143.449H111.094L124.256 95.2034C124.793 93.2108 125.898 91.4611 127.409 90.2127C128.92 88.9642 130.756 88.2834 132.645 88.2708L214.368 87.4148C216.343 87.3937 218.267 88.0999 219.834 89.421C221.402 90.742 222.522 92.6019 223.017 94.7042L234.494 143.449Z" fill="#CCCCCC"/>
<path d="M224.994 138.887L120.574 137.525C120.442 137.523 120.312 137.488 120.195 137.421C120.078 137.354 119.976 137.258 119.899 137.14C119.822 137.022 119.771 136.886 119.75 136.743C119.73 136.599 119.74 136.452 119.78 136.314L129.791 101.968C129.845 101.781 129.952 101.617 130.097 101.502C130.241 101.386 130.415 101.323 130.594 101.323H214.581C214.76 101.323 214.934 101.386 215.079 101.501C215.223 101.617 215.33 101.78 215.385 101.968L225.807 137.675C225.848 137.815 225.858 137.964 225.837 138.109C225.815 138.254 225.762 138.392 225.683 138.51C225.603 138.628 225.499 138.724 225.38 138.79C225.26 138.855 225.128 138.889 224.994 138.887Z" fill="white"/>
<path d="M186.867 93.3023H158.722C158.484 93.3023 158.269 93.0455 158.16 92.6319C158.051 92.2085 158.067 91.7581 158.205 91.3451L160.526 84.8906C160.644 84.5616 160.837 84.3652 161.042 84.3652H184.546C184.751 84.3652 184.944 84.5616 185.062 84.8906L187.383 91.3451C187.521 91.7581 187.537 92.2085 187.428 92.6319C187.319 93.0455 187.104 93.3023 186.867 93.3023Z" fill="#064E89"/>
<path d="M111.172 142.456H92.6611V137.982C92.6626 136.535 93.1858 135.148 94.1158 134.126C95.0459 133.103 96.3069 132.527 97.6222 132.526H111.172V142.456Z" fill="#CCCCCC"/>
<path d="M252.939 142.456H234.428V132.526H247.978C249.293 132.527 250.554 133.103 251.484 134.126C252.414 135.148 252.937 136.535 252.939 137.982V142.456Z" fill="#CCCCCC"/>
<path d="M90.4955 212.205L0.000488281 247.955L0.384646 249.131L90.8797 213.381L90.4955 212.205Z" fill="#3F3D56"/>
<path d="M254.534 212.207L254.15 213.383L344.647 249.124L345.031 247.948L254.534 212.207Z" fill="#3F3D56"/>
<path d="M177.828 238.129H172.412V230.435H177.828V238.129ZM177.828 222.741H172.412V215.047H177.828V222.741Z" fill="#E6E6E6"/>
<path d="M177.828 270H172.412V262.306H177.828V270ZM177.828 254.612H172.412V246.918H177.828V254.612Z" fill="#E6E6E6"/>
<path d="M415.834 243.422H409.868L407.029 218.117H415.834V243.422Z" fill="#FFB8B8"/>
<path d="M417.356 249.782H398.119V249.514C398.122 247.331 398.911 245.238 400.315 243.695C401.719 242.151 403.622 241.283 405.607 241.28H417.356L417.356 249.782Z" fill="#2F2E41"/>
<path d="M492.765 230.991L487.651 234.37L473.367 214.286L480.914 209.299L492.765 230.991Z" fill="#FFB8B8"/>
<path d="M480.559 246.475L480.434 246.245C479.414 244.373 479.11 242.132 479.591 240.013C480.071 237.895 481.296 236.073 482.996 234.947L493.067 228.293L497.048 235.58L480.559 246.475Z" fill="#2F2E41"/>
<path d="M417.385 238.2L417.282 238.2C414.38 238.19 411.481 238.006 408.596 237.65C407.497 237.53 406.305 237.401 404.868 237.271L404.819 237.261C403.839 236.941 403.811 226.831 404.227 192.225C404.44 174.501 404.681 154.412 404.394 141.618L404.391 141.492L404.477 141.409C415.119 131.23 428.786 127.414 442.96 130.665L443.065 130.689L443.12 130.791C448.983 141.701 457.836 157.416 466.397 172.613C486.05 207.501 491.671 217.761 491.055 218.535L490.981 218.598C489.639 219.336 488.631 219.904 487.775 220.387C484.906 222.005 483.719 222.674 477.34 225.563L477.182 225.634L477.067 225.496C457.126 201.466 440.531 174.623 430.267 149.809C429.068 158.281 427.612 169.342 426.074 181.03C421.65 214.64 418.661 236.772 417.457 238.119L417.385 238.2Z" fill="#2F2E41"/>
<path d="M448.357 34.3103C450.366 25.1914 452.067 14.9063 448.28 6.50765C445.652 0.680272 435.93 -1.28213 430.357 0.817242C424.784 2.91661 420.755 8.61237 418.983 14.8225C417.211 21.0327 417.417 27.7246 418.189 34.1805C428.438 33.964 438.688 33.7475 448.357 34.3103Z" fill="#2F2E41"/>
<path d="M431.061 34.3079C437.662 34.3079 443.013 28.4233 443.013 21.1644C443.013 13.9055 437.662 8.021 431.061 8.021C424.461 8.021 419.11 13.9055 419.11 21.1644C419.11 28.4233 424.461 34.3079 431.061 34.3079Z" fill="#FFB8B8"/>
<path d="M445.672 18.457C445.71 16.2449 445.344 14.047 444.594 11.9938C443.844 9.94068 442.727 8.07419 441.308 6.50528C439.89 4.93637 438.199 3.69703 436.336 2.86093C434.474 2.02482 432.477 1.60899 430.465 1.63815C428.454 1.66732 426.468 2.14088 424.626 3.0307C422.784 3.92052 421.123 5.20843 419.743 6.81793C418.362 8.42742 417.29 10.3256 416.59 12.3998C415.89 14.474 415.576 16.6818 415.667 18.892C425.897 18.9159 436.126 18.9398 445.672 18.457Z" fill="#2F2E41"/>
<path d="M422.758 144.203C434.648 144.144 446.461 146.319 457.686 150.634C458.076 129.915 451.59 109.159 439.863 93.6308L439.775 93.5148L439.82 93.3724C442.952 83.4188 446.19 73.1306 449.083 62.8933L449.039 62.7213C447.01 54.7887 442.655 46.7726 435.725 38.2147C434.974 37.3582 433.954 36.8482 432.873 36.788C431.792 36.7278 430.73 37.1219 429.904 37.8904C417.586 50.3082 410.888 68.914 412.425 86.4475L412.429 86.499L412.416 86.5489C406.989 106.766 405.019 117.15 403.282 126.311C402.014 132.994 400.916 138.781 398.712 147.05C406.612 145.159 414.673 144.205 422.758 144.203Z" fill="#3F3D56"/>
<path opacity="0.1" d="M440.264 80.2944L422.612 122.558L412.527 111.332L440.264 80.2944Z" fill="black"/>
<path d="M400.641 103.769L401.872 106.399C401.883 106.423 401.885 106.452 401.878 106.478C401.87 106.504 401.854 106.525 401.832 106.538L401.772 106.571L408.184 120.272C408.361 120.651 408.394 121.092 408.276 121.498C408.158 121.904 407.898 122.242 407.553 122.437L399.769 126.843C399.598 126.939 399.412 126.998 399.22 127.015C399.029 127.033 398.836 127.008 398.654 126.944C398.471 126.879 398.301 126.776 398.155 126.64C398.009 126.503 397.888 126.336 397.8 126.149L391.613 112.929L391.57 112.953C391.555 112.962 391.537 112.964 391.52 112.958C391.503 112.952 391.489 112.939 391.481 112.922L390.781 111.425C390.777 111.417 390.774 111.407 390.774 111.398C390.773 111.388 390.774 111.379 390.777 111.37C390.779 111.361 390.783 111.352 390.789 111.345C390.795 111.337 390.802 111.331 390.809 111.327L390.852 111.303L390.588 110.739L390.545 110.763C390.529 110.773 390.51 110.774 390.492 110.768C390.475 110.762 390.46 110.748 390.452 110.73L389.761 109.254C389.752 109.236 389.751 109.215 389.757 109.196C389.762 109.177 389.774 109.161 389.791 109.151L389.834 109.127L389.474 108.357L389.43 108.382C389.415 108.39 389.399 108.392 389.383 108.387C389.368 108.381 389.355 108.369 389.347 108.353L388.97 107.547C388.963 107.531 388.961 107.513 388.966 107.496C388.971 107.479 388.982 107.464 388.996 107.456L389.04 107.431L388.277 105.8C388.1 105.421 388.066 104.98 388.185 104.574C388.303 104.168 388.563 103.83 388.908 103.635L396.692 99.2295C397.037 99.0344 397.438 98.9979 397.807 99.1279C398.176 99.2579 398.483 99.5439 398.661 99.9229L400.456 103.758L400.515 103.724C400.537 103.712 400.563 103.71 400.586 103.718C400.61 103.726 400.63 103.745 400.641 103.769Z" fill="#3F3D56"/>
<path d="M398.171 100.558L407.617 120.743C407.729 120.983 407.75 121.263 407.675 121.52C407.6 121.778 407.435 121.992 407.216 122.116L399.765 126.333C399.547 126.457 399.293 126.481 399.059 126.399C398.825 126.317 398.63 126.136 398.517 125.896L398.516 125.893L389.07 105.709C389.014 105.59 388.98 105.46 388.97 105.326C388.96 105.193 388.974 105.058 389.011 104.931C389.048 104.803 389.108 104.685 389.187 104.583C389.265 104.481 389.362 104.397 389.47 104.335L390.585 103.704L390.659 103.861C390.705 103.959 390.768 104.047 390.844 104.118C390.921 104.189 391.009 104.243 391.105 104.277C391.2 104.31 391.301 104.323 391.401 104.314C391.501 104.305 391.598 104.274 391.687 104.224L395.477 102.079C395.657 101.977 395.793 101.801 395.855 101.588C395.917 101.376 395.899 101.146 395.807 100.948L395.733 100.79L396.921 100.118C397.14 99.994 397.394 99.9707 397.629 100.053C397.863 100.136 398.058 100.317 398.17 100.557L398.171 100.558Z" fill="#064E89"/>
<path d="M400.909 125.217C401.622 125.163 402.316 124.937 402.942 124.555C403.568 124.174 404.109 123.646 404.53 123.009C404.95 122.373 405.238 121.642 405.373 120.87C405.509 120.097 405.489 119.302 405.315 118.539L419.86 108.059L411.565 104.118L399.024 114.674C397.878 115.081 396.907 115.936 396.296 117.077C395.685 118.218 395.476 119.566 395.708 120.866C395.94 122.166 396.598 123.326 397.556 124.128C398.515 124.93 399.708 125.318 400.909 125.217Z" fill="#FFB8B8"/>
<path d="M414.904 117.667L414.721 117.525C411.259 114.723 407.416 111.825 403.7 109.023L403.477 108.855L403.652 108.629C411.585 98.4225 419.526 87.7619 427.207 77.4491C427.201 77.4326 427.196 77.4206 427.192 77.412L427.264 77.3715L427.295 77.3304L427.311 77.3453L427.358 77.3195L427.148 77.3372L424.781 56.9206C422.643 53.7127 422.233 47.3436 425.036 42.8977C427.938 38.2921 434.079 36.7507 438.177 39.5978C439.251 40.3904 440.149 41.4385 440.804 42.6644C441.46 43.8902 441.856 45.2625 441.964 46.6797C442.116 47.9422 442.01 49.2262 441.654 50.4378C441.297 51.6495 440.699 52.7582 439.903 53.6832C440.909 64.488 440.947 74.1458 440.985 83.4876L440.985 83.5809L440.933 83.6577C432.744 95.0978 423.75 106.477 415.052 117.481L414.904 117.667Z" fill="#3F3D56"/>
<path d="M172.637 61.931C187.478 61.931 199.51 48.6998 199.51 32.3782C199.51 16.0567 187.478 2.82544 172.637 2.82544C157.795 2.82544 145.763 16.0567 145.763 32.3782C145.763 48.6998 157.795 61.931 172.637 61.931Z" fill="#064E89"/>
<path d="M170.075 44.8528L162.032 33.4798L166.71 29.479L170.518 34.864L183.384 19.9282L187.686 24.4108L170.075 44.8528Z" fill="white"/>
<path d="M521.432 250.596H385.616C385.465 250.596 385.321 250.53 385.214 250.413C385.107 250.295 385.048 250.136 385.048 249.971C385.048 249.805 385.107 249.646 385.214 249.529C385.321 249.412 385.465 249.346 385.616 249.346H521.432C521.582 249.346 521.727 249.412 521.834 249.529C521.94 249.646 522 249.805 522 249.971C522 250.136 521.94 250.295 521.834 250.413C521.727 250.53 521.582 250.596 521.432 250.596Z" fill="#3F3D56"/>
</g>
<defs>
<clipPath id="clip0_657_92">
<rect width="522" height="270" fill="white"/>
</clipPath>
</defs>
</svg>
